<svg xmlns="http://www.w3.org/2000/svg" xmlns:xlink="http://www.w3.org/1999/xlink" width="100" zoomAndPan="magnify" viewBox="0 0 75 37.5" height="50" preserveAspectRatio="xMidYMid meet" version="1.0"><defs><g/><clipPath id="3775601f31"><path d="M 0.492188 0 L 74.503906 0 L 74.503906 37.007812 L 0.492188 37.007812 Z M 0.492188 0 " clip-rule="nonzero"/></clipPath></defs><g clip-path="url(#3775601f31)"><path stroke-linecap="butt" transform="matrix(0.11141, 0, 0, 0.11141, -10.335694, 10.203275)" fill="none" stroke-linejoin="miter" d="M 225.271561 -0.737645 C 231.161988 -8.626609 237.192662 -14.446912 243.328523 -18.16349 C 249.499446 -21.880069 256.126176 -23.77342 263.243775 -23.77342 C 267.065539 -23.77342 270.186063 -22.861807 272.535221 -21.108703 C 274.884379 -19.3556 276.076489 -17.076566 276.076489 -14.236539 C 276.076489 -12.693808 275.655745 -11.221202 274.884379 -9.853781 C 274.148076 -8.486361 273.166338 -7.294251 271.974228 -6.242389 C 270.747056 -5.190527 269.309511 -4.349038 267.661594 -3.682859 C 266.04874 -3.051741 264.400823 -2.701121 262.752906 -2.701121 C 261.525734 -2.701121 260.754368 -2.911493 260.43881 -3.262114 C 260.123251 -3.682859 259.667444 -4.804844 259.106451 -6.663134 C 259.001265 -7.118941 258.58052 -7.504623 257.774093 -7.890306 C 257.03779 -8.275989 256.266424 -8.451299 255.495059 -8.451299 C 250.130563 -8.451299 245.327061 -5.506086 241.049489 0.419403 C 246.063364 1.155706 250.691556 2.593251 254.863942 4.661912 C 259.036327 6.765636 262.577595 9.360229 265.522809 12.515814 C 268.503084 15.636338 270.81718 19.282792 272.430035 23.385053 C 274.113014 27.487315 274.919441 31.905135 274.919441 36.603451 C 274.919441 41.967946 274.04289 47.087007 272.289787 51.89051 C 270.536684 56.729075 268.152463 60.936522 265.137126 64.547914 C 262.121789 68.159307 258.615582 71.034396 254.653569 73.173182 C 250.726618 75.311968 246.554233 76.398891 242.206537 76.398891 C 236.386235 76.398891 231.582732 74.750975 227.866154 71.455141 C 224.149575 68.159307 222.291286 63.986921 222.291286 58.973047 C 222.291286 56.974509 222.53672 55.046096 222.992527 53.152744 C 223.518458 51.224331 224.149575 49.50629 224.885879 47.963559 C 225.657244 46.420828 226.568858 45.193656 227.620719 44.282043 C 228.672581 43.335367 229.689381 42.87956 230.671119 42.87956 C 231.442484 42.87956 231.933353 43.019808 232.21385 43.335367 C 232.494346 43.685987 232.915091 44.492415 233.441022 45.789711 C 234.212387 47.788249 235.61487 48.769986 237.578345 48.769986 C 238.910703 48.769986 240.172938 48.31418 241.435172 47.437628 C 242.697406 46.561077 243.819392 45.368966 244.80113 43.89636 C 245.81793 42.423753 246.589295 40.810898 247.18535 39.022733 C 247.816467 37.199506 248.096964 35.306155 248.096964 33.307617 C 248.096964 28.714487 246.694481 24.822598 243.889516 21.63195 C 241.119613 18.441303 237.262787 16.372641 232.319036 15.390903 C 230.460747 19.878847 228.98814 23.49024 227.936278 26.225081 C 226.919478 28.959921 225.93774 31.729824 225.096251 34.464665 C 224.74563 35.341217 224.535258 35.937272 224.430072 36.287892 C 224.324886 36.603451 224.219699 36.883947 224.184637 37.09432 C 224.114513 37.304692 224.044389 37.585189 223.939203 37.935809 C 223.834017 38.251368 223.658706 38.847423 223.448334 39.723974 C 222.782155 42.143257 221.835479 45.894897 220.573245 51.013958 C 219.311011 56.097957 217.733218 62.584439 215.874929 70.508465 C 211.246736 89.12642 203.848641 103.326555 193.645581 113.073808 C 183.442521 122.821062 170.855241 127.72975 155.813616 127.72975 C 150.343934 127.72975 145.294998 126.888261 140.666805 125.240344 C 136.073675 123.592427 132.111662 121.348455 128.745704 118.473366 C 125.414808 115.633339 122.785154 112.232319 120.926864 108.200182 C 119.068575 104.203107 118.156961 99.855411 118.156961 95.157095 C 118.156961 88.916048 119.83994 82.955497 123.24096 77.310505 C 126.64198 71.665513 131.200049 67.142507 136.915165 63.741487 C 140.736929 61.567639 144.874253 59.814536 149.327135 58.482178 C 153.780017 57.184881 157.847216 56.518702 161.563794 56.518702 C 164.333697 56.518702 166.542607 56.974509 168.225586 57.921185 C 169.943627 58.832798 170.820179 60.05997 170.820179 61.637763 C 170.820179 62.26888 170.679931 62.794811 170.434496 63.250618 C 170.224124 63.706425 169.347572 64.828411 167.839904 66.6867 C 167.173724 67.668438 166.858166 68.825486 166.858166 70.122782 C 166.858166 72.12132 167.734717 73.839361 169.48782 75.34703 C 171.240924 76.819636 173.344647 77.55594 175.728867 77.55594 C 178.568895 77.55594 181.54917 76.749512 184.634631 75.101595 C 187.685031 73.453678 190.349747 71.174644 192.523595 68.334617 C 194.276698 66.160769 195.854491 63.601239 197.256974 60.691088 C 198.72958 57.780936 200.412559 53.643613 202.376035 48.279118 C 203.568145 45.08847 204.690131 42.073133 205.741993 39.268168 C 206.793855 36.393079 207.915841 33.6933 209.107951 31.168831 L 215.068501 18.651675 C 215.278874 18.125744 215.524308 17.564751 215.769742 17.03882 C 216.050239 16.477827 216.295673 15.916834 216.541108 15.390903 C 213.35046 15.916834 210.896116 16.512889 209.107951 17.108944 C 207.38991 17.704999 205.636807 18.546489 203.848641 19.668475 C 201.990352 20.860585 200.447621 22.368254 199.150325 24.191481 C 197.888091 25.979646 197.256974 27.592501 197.256974 28.994983 C 197.256974 30.257218 197.572532 31.168831 198.168587 31.799948 C 198.764642 32.360941 200.167125 33.097245 202.376035 33.938734 C 203.252586 34.289355 203.708393 35.025658 203.708393 36.112582 C 203.708393 38.321492 202.270849 41.161519 199.430821 44.667725 C 196.34536 48.173931 192.94434 50.908772 189.192699 52.837186 C 185.476121 54.730537 181.689418 55.677213 177.867653 55.677213 C 172.047351 55.677213 167.243848 53.994234 163.457146 50.663338 C 159.670443 47.29738 157.777092 43.05487 157.777092 37.935809 C 157.777092 31.028583 160.546995 24.68235 166.016676 18.932172 C 171.52142 13.181993 179.305198 8.483677 189.403072 4.837223 C 200.026877 1.120644 211.001302 -0.737645 222.291286 -0.737645 Z M 278.530834 63.601239 C 278.741206 62.794811 278.916516 61.953322 278.951578 61.006646 C 279.021703 60.095033 279.021703 59.183419 279.021703 58.341929 C 279.021703 56.974509 278.776268 55.957709 278.285399 55.29153 C 277.79453 54.555227 276.882917 53.748799 275.58562 52.872248 C 276.988103 51.539889 278.63602 50.312717 280.494309 49.155669 C 282.352598 48.033683 284.281012 47.051945 286.279549 46.245518 C 288.243025 45.404029 290.171438 44.737849 292.099852 44.282043 C 294.028265 43.756112 295.81643 43.510677 297.464347 43.510677 C 300.304374 43.510677 302.583408 44.176856 304.266387 45.544277 C 305.984428 46.911697 306.825918 48.805049 306.825918 51.224331 C 306.825918 51.785324 306.755794 52.521627 306.650608 53.398179 C 306.545421 54.239668 306.405173 55.501902 306.194801 57.149819 C 307.807656 55.642151 309.104952 54.414978 310.051628 53.538427 C 310.963241 52.661875 311.769669 51.925572 312.400786 51.329517 C 313.066965 50.733462 313.66302 50.242593 314.118827 49.927035 C 314.644758 49.576414 315.205751 49.155669 315.87193 48.594676 C 317.730219 47.192194 319.904067 46.070208 322.358411 45.228718 C 324.847818 44.422291 327.161914 44.001546 329.370824 44.001546 C 332.982216 44.001546 335.927429 45.053408 338.241526 47.192194 C 340.52056 49.330979 341.677608 52.171007 341.677608 55.677213 C 341.677608 58.201681 341.221801 60.585901 340.275125 62.899998 C 339.363512 65.214094 338.101277 67.247693 336.488422 69.000796 C 334.91063 70.753899 333.122464 72.156382 331.088865 73.173182 C 329.055265 74.225044 326.916479 74.750975 324.742632 74.750975 C 322.112977 74.750975 319.798881 73.979609 317.835405 72.47194 C 315.87193 70.894148 314.890192 69.105983 314.890192 67.037321 C 314.890192 66.6867 314.925254 66.301018 314.995378 65.880273 C 315.03044 65.459528 315.100565 64.968659 315.205751 64.407666 C 313.031903 65.599776 311.138552 66.932135 309.595821 68.369679 C 308.088152 69.772162 306.720732 71.420079 305.49356 73.243306 C 304.301449 75.031471 303.214525 77.135195 302.302912 79.624601 C 301.391298 82.078946 300.479685 84.989097 299.603133 88.390117 L 298.095464 95.157095 C 296.237175 103.046059 292.029728 107.008072 285.473122 107.008072 L 279.021703 107.008072 C 277.163413 107.008072 275.375248 107.288568 273.657207 107.884623 C 271.974228 108.51574 270.186063 109.567602 268.362836 111.110333 Z M 407.313788 80.711525 C 406.682671 83.51649 406.367112 85.444903 406.367112 86.426641 C 406.367112 87.653813 406.822919 88.670613 407.734533 89.582227 C 408.646146 90.458778 409.838256 90.879523 411.275801 90.879523 C 412.502973 90.879523 413.589897 90.669151 414.536573 90.213344 C 416.850669 89.582227 418.112903 89.266668 418.358338 89.266668 C 419.094641 89.266668 419.76082 89.547165 420.286751 90.108158 C 420.847744 90.634089 421.12824 91.33533 421.12824 92.176819 C 421.12824 93.964985 420.216627 95.788212 418.3934 97.716625 C 416.605234 99.609977 414.3262 101.398142 411.59136 103.081121 C 408.856519 104.693976 405.841181 106.061396 402.615472 107.14832 C 399.389762 108.270306 396.374425 108.796237 393.499336 108.796237 C 389.677571 108.796237 386.486923 107.534003 383.962455 105.044596 C 381.437986 102.520128 380.175752 99.32948 380.175752 95.472653 C 380.175752 94.946722 380.175752 94.385729 380.175752 93.789674 C 380.175752 93.158557 380.210814 92.492378 380.316 91.685951 C 378.913518 93.474116 377.75647 94.91166 376.879918 95.998584 C 376.003367 97.085508 375.267063 98.032184 374.600884 98.803549 C 373.934705 99.539852 373.303588 100.206032 372.707533 100.767025 C 372.111478 101.328018 371.48036 101.889011 370.814181 102.55519 C 368.710458 104.623851 366.361299 106.236706 363.696583 107.393754 C 361.066928 108.550802 358.612584 109.111795 356.298488 109.111795 C 351.389799 109.111795 347.357662 107.113258 344.237138 103.081121 C 341.116615 98.978859 339.573884 93.789674 339.573884 87.443441 C 339.573884 81.938697 340.590684 76.574202 342.659345 71.349955 C 344.763069 66.055583 347.462848 61.357267 350.828806 57.255006 C 354.159702 53.117682 358.016529 49.821848 362.329162 47.367504 C 366.676858 44.91316 371.164802 43.685987 375.757932 43.685987 C 382.209352 43.685987 387.503723 46.035146 391.71117 50.733462 C 393.674646 49.330979 395.392687 48.173931 396.795169 47.29738 C 398.197652 46.385766 399.459886 45.719587 400.581872 45.228718 C 401.668796 44.737849 402.685596 44.422291 403.632271 44.282043 C 404.543885 44.07167 405.560685 44.001546 406.682671 44.001546 C 408.856519 44.001546 410.644684 44.562539 412.012104 45.719587 C 413.379525 46.876635 414.010642 48.31418 413.905456 50.102345 C 413.905456 51.189269 413.730145 52.276193 413.414587 53.398179 Z M 379.860193 60.761212 C 377.440911 60.761212 375.337187 61.848136 373.51396 63.986921 C 371.725795 66.125707 370.814181 68.580052 370.814181 71.314892 C 370.814181 75.487278 372.637409 77.55594 376.248801 77.55594 C 377.335725 77.55594 378.387587 77.240381 379.439449 76.609264 C 380.49131 75.943085 381.402924 75.031471 382.209352 73.944547 C 383.050841 72.857623 383.71702 71.630451 384.172827 70.263031 C 384.698758 68.860548 384.944192 67.387941 384.944192 65.880273 C 384.944192 62.479253 383.261213 60.761212 379.860193 60.761212 Z M 496.161053 47.612938 C 497.703784 43.545739 499.071205 39.934347 500.333439 36.778761 C 501.595673 33.588114 502.787783 30.713024 503.874707 28.223618 C 504.961631 25.69915 506.048555 23.349991 507.100417 21.211206 C 508.117217 19.07242 509.204141 16.968696 510.291065 14.864972 C 514.919257 6.765636 520.213628 0.454465 526.244303 -4.033479 C 532.274978 -8.521423 538.516025 -10.800457 545.002506 -10.800457 C 550.927995 -10.800457 555.696435 -8.942168 559.377952 -5.260651 C 563.059468 -1.579135 564.917757 3.224368 564.917757 9.149856 C 564.917757 15.145469 563.445151 21.141082 560.535 27.101632 C 557.659911 32.992059 553.697897 38.46174 548.684023 43.510677 C 543.70521 48.559614 537.884907 52.942372 531.188054 56.694013 C 524.4912 60.410591 517.303477 63.075308 509.659947 64.723225 C 508.117217 68.790424 506.434238 72.612189 504.681135 76.153457 C 502.928031 79.729787 501.455425 82.219194 500.263315 83.621676 C 503.453962 85.059221 506.574486 86.216269 509.695009 87.057758 C 512.815533 87.829124 515.550374 88.249868 517.86447 88.249868 C 520.704497 88.249868 523.193903 87.408379 525.227503 85.7254 C 527.331227 84.007359 528.383089 81.938697 528.383089 79.519415 C 528.383089 77.766312 527.997406 76.53914 527.296165 75.837898 C 526.594923 75.101595 525.157379 74.470478 522.948469 73.944547 C 521.405738 73.383554 520.669435 72.331692 520.669435 70.824024 C 520.669435 69.596851 521.26549 68.439803 522.4576 67.282755 C 523.684772 66.125707 525.297627 65.108907 527.331227 64.232356 C 529.364826 63.355804 531.678922 62.654563 534.238453 62.09357 C 536.797984 61.532577 539.532824 61.252081 542.372851 61.252081 C 545.528437 61.252081 548.47365 61.813074 551.138367 62.899998 C 553.838146 63.986921 556.187304 65.529652 558.150779 67.52819 C 560.149317 69.491665 561.72711 71.840823 562.884158 74.50554 C 564.006144 77.205319 564.602199 80.080408 564.602199 83.130807 C 564.602199 87.338255 563.690585 91.230144 561.867358 94.841536 C 560.044131 98.452929 557.554724 101.573452 554.434201 104.238169 C 551.313677 106.867823 547.632161 108.901423 543.354589 110.37403 C 539.077018 111.846636 534.448825 112.58294 529.540137 112.58294 C 526.910482 112.58294 524.631448 112.477753 522.703035 112.267381 C 520.774621 112.057009 518.495587 111.460954 515.865932 110.444154 C 513.27134 109.462416 509.87032 107.989809 505.768059 106.026334 C 501.665797 104.062858 496.125991 101.257894 489.078517 97.646501 C 483.924394 102.239631 478.279402 105.745837 472.178603 108.16512 C 466.112866 110.584402 459.906881 111.776512 453.560648 111.776512 C 449.493449 111.776512 445.77687 111.215519 442.445974 110.128595 C 439.080016 109.041671 436.204927 107.534003 433.785645 105.640651 C 431.401425 103.712238 429.543135 101.398142 428.210777 98.733425 C 426.913481 96.033646 426.247302 93.088433 426.247302 89.897785 C 426.247302 86.91751 426.843357 84.182669 428.070529 81.658201 C 429.262639 79.133732 430.945618 76.959884 433.084404 75.101595 C 435.223189 73.243306 437.747658 71.770699 440.622747 70.753899 C 443.532898 69.702038 446.758608 69.176107 450.264814 69.176107 C 454.857944 69.176107 459.906881 69.877348 465.376563 71.314892 C 470.846245 72.717375 477.05223 74.856161 483.994518 77.73125 C 485.291814 75.627526 486.483924 73.418616 487.535786 71.069458 C 488.587648 68.685238 489.323951 66.581514 489.744696 64.723225 C 485.116504 64.162232 481.224615 63.355804 477.963843 62.26888 C 474.738134 61.181956 471.477362 59.674288 468.181528 57.815999 C 462.256039 54.309792 457.592785 49.786786 454.191765 44.282043 C 450.790745 38.742237 449.107766 32.816748 449.107766 26.575701 C 449.107766 22.263067 449.844069 18.265992 451.3868 14.47929 C 452.929531 10.692587 455.033255 7.396753 457.662909 4.556726 C 460.257502 1.681637 463.307901 -0.562335 466.779045 -2.17519 C 470.25019 -3.858169 473.896644 -4.664596 477.718409 -4.664596 C 485.291814 -4.664596 491.67311 -1.614197 496.792171 4.521664 C 498.685522 6.695512 500.123067 9.184918 501.139866 11.954821 C 502.191728 14.689662 502.717659 17.179068 502.717659 19.493165 C 502.717659 22.999371 501.385301 24.752474 498.790708 24.752474 C 498.334901 24.752474 497.984281 24.717412 497.703784 24.68235 C 497.423288 24.612226 497.142791 24.471977 496.792171 24.261605 C 496.476612 24.051233 496.020805 23.700612 495.389688 23.244805 C 494.828695 22.718874 494.022268 21.982571 493.04053 20.965771 C 491.813358 19.984033 490.130379 19.493165 487.921469 19.493165 C 485.291814 19.493165 483.153028 20.43984 481.505112 22.29813 C 479.857195 24.156419 479.050767 26.610763 479.050767 29.696225 C 479.050767 32.010321 479.576698 34.289355 480.593498 36.533327 C 481.610298 38.777299 483.047842 40.600526 484.800945 42.038071 C 486.203428 43.230181 487.676034 44.211918 489.218765 44.983284 C 490.761496 45.754649 493.075592 46.631201 496.161053 47.612938 Z M 515.550374 49.401104 C 518.530649 48.6648 521.370676 47.507752 524.105517 46.000084 C 526.840358 44.457353 529.294702 42.70425 531.503612 40.810898 C 533.712522 38.882485 535.465625 36.883947 536.762921 34.780224 C 538.060218 32.711562 538.726397 30.713024 538.726397 28.854735 C 538.726397 27.312004 538.27059 26.04977 537.323914 25.068032 C 536.412301 24.086295 535.255253 23.595426 533.817708 23.595426 C 530.767309 23.595426 527.962344 25.348529 525.437875 28.854735 C 524.771696 29.731287 524.245765 30.46759 523.825021 31.098707 C 523.4744 31.694762 523.018593 32.536252 522.4576 33.623176 C 521.931669 34.745162 521.26549 36.25283 520.424001 38.181244 C 519.582511 40.109657 518.425463 42.809436 516.882732 46.315642 C 516.67236 46.736387 516.426925 47.227256 516.216553 47.823311 C 515.971119 48.349242 515.760746 48.875173 515.550374 49.401104 Z M 473.265527 90.388654 C 471.968231 89.827661 470.460562 89.30173 468.812645 88.775799 C 467.164728 88.214806 465.551873 87.723938 463.939018 87.268131 C 462.361226 86.812324 460.888619 86.461703 459.521199 86.181207 C 458.18884 85.935772 457.101916 85.795524 456.330551 85.795524 C 454.78782 85.795524 453.4204 86.286393 452.22829 87.268131 C 451.03618 88.249868 450.405062 89.371854 450.405062 90.704213 C 450.405062 92.35213 451.176428 93.71955 452.719158 94.841536 C 454.261889 95.92846 456.155241 96.489453 458.329088 96.489453 C 460.748371 96.489453 463.097529 95.998584 465.411625 95.086971 C 467.690659 94.140295 470.320314 92.562502 473.265527 90.388654 Z M 577.89072 63.916797 C 578.451713 61.392329 578.697148 59.639226 578.697148 58.657488 C 578.697148 56.343392 577.434914 54.485103 574.945507 53.08262 C 582.624099 46.701325 589.917008 43.510677 596.824234 43.510677 C 599.664261 43.510677 601.908233 44.211918 603.591212 45.649463 C 605.309253 47.051945 606.185805 49.050483 606.185805 51.574951 C 606.185805 52.451503 606.185805 53.047558 606.185805 53.398179 C 606.185805 53.713737 606.080618 54.134482 605.870246 54.660413 L 600.260316 80.851773 C 600.049944 81.728325 599.874633 82.569814 599.734385 83.34118 C 599.629199 84.112545 599.594137 84.743662 599.594137 85.269593 C 599.594137 86.91751 600.014882 88.249868 600.926495 89.266668 C 601.803047 90.213344 602.995157 90.704213 604.537888 90.704213 C 605.204067 90.704213 605.800122 90.599027 606.326053 90.458778 C 606.887046 90.283468 608.429777 89.757537 610.954245 88.880986 L 611.585362 88.880986 C 613.268341 88.880986 614.074769 89.827661 614.074769 91.685951 C 614.074769 93.579302 613.198217 95.507715 611.445114 97.471191 C 609.692011 99.434666 607.483101 101.257894 604.783322 102.90581 C 602.083543 104.553727 599.173392 105.886086 595.982744 107.008072 C 592.827159 108.094996 589.811822 108.655989 586.936732 108.655989 C 582.553975 108.655989 578.90752 107.428816 575.962307 104.93941 C 573.087218 102.485066 571.649673 99.32948 571.649673 95.472653 C 571.649673 93.824736 571.789922 92.246944 572.10548 90.704213 Z M 599.594137 12.410628 C 603.450964 12.410628 606.536425 13.427428 608.815459 15.461027 C 611.129555 17.494627 612.286603 20.124282 612.286603 23.420116 C 612.286603 25.418653 611.795734 27.276942 610.778935 29.065108 C 609.797197 30.783149 608.429777 32.325879 606.641611 33.623176 C 604.92357 34.955534 602.925033 36.007396 600.681061 36.848885 C 598.437089 37.655313 596.087931 38.076058 593.668648 38.076058 C 590.162442 38.076058 587.392539 37.09432 585.288815 35.130844 C 583.220154 33.132307 582.168292 30.502652 582.168292 27.206818 C 582.168292 25.243343 582.624099 23.420116 583.570774 21.667012 C 584.51745 19.878847 585.779684 18.336117 587.427601 16.968696 C 589.075518 15.566214 590.933807 14.47929 593.002469 13.672862 C 595.106193 12.831373 597.280041 12.410628 599.594137 12.410628 Z M 641.878984 110.128595 C 641.107618 113.634801 639.95057 116.15927 638.442902 117.666939 C 637.426102 118.683738 636.093744 119.490166 634.445827 120.121283 C 632.832972 120.787462 631.360365 121.138083 630.028007 121.138083 L 622.629912 121.138083 C 620.666436 121.138083 618.948395 121.453641 617.545913 122.084758 C 616.108368 122.786 614.355265 124.048234 612.286603 125.906523 L 626.276366 61.111832 L 622.629912 61.111832 C 619.789885 61.111832 618.35234 59.498977 618.35234 56.30833 C 618.35234 55.887585 618.387402 55.607089 618.492588 55.501902 L 619.334078 51.224331 C 619.789885 49.471228 620.38594 48.208993 621.157305 47.367504 C 621.92867 46.526015 623.085718 45.894897 624.628449 45.474153 C 625.715373 45.158594 626.626987 44.843036 627.398352 44.527477 C 628.169718 44.176856 628.800835 43.650925 629.361828 42.949684 C 629.922821 42.213381 630.413689 41.266705 630.834434 40.039533 C 631.290241 38.847423 631.851234 37.26963 632.517413 35.271093 C 633.954958 30.677962 636.058681 26.470515 638.828584 22.718874 C 641.633549 18.89711 644.894321 15.636338 648.540776 12.901497 C 652.222292 10.166656 656.184305 8.062932 660.461877 6.520202 C 664.77451 4.977471 669.19233 4.206105 673.820522 4.206105 C 679.921321 4.206105 684.794948 5.608588 688.336216 8.413553 C 691.912546 11.183456 693.700712 14.935097 693.700712 19.668475 C 693.700712 21.63195 693.315029 23.49024 692.613788 25.208281 C 691.912546 26.89126 690.930809 28.363866 689.668575 29.626101 C 688.40634 30.888335 686.968796 31.870073 685.285817 32.571314 C 683.672962 33.272555 681.919859 33.623176 680.026507 33.623176 C 676.976108 33.623176 674.416577 32.6765 672.312854 30.783149 C 670.244192 28.854735 669.19233 26.470515 669.19233 23.595426 C 669.19233 22.508502 669.332578 21.526764 669.578013 20.755399 C 669.858509 19.913909 670.38444 18.791923 671.155806 17.354379 C 669.297516 17.669937 667.719724 18.160806 666.457489 18.756861 C 665.195255 19.352916 664.108331 20.229468 663.161656 21.386516 C 662.250042 22.543564 661.478677 23.981109 660.882621 25.769274 C 660.286566 27.487315 659.655449 29.731287 658.98927 32.50119 L 656.184305 45.158594 L 669.01702 45.158594 C 672.523226 45.158594 674.276329 46.526015 674.276329 49.260855 C 674.276329 49.716662 674.171143 50.347779 673.960771 51.224331 L 673.119281 55.501902 C 672.24273 59.253543 670.03382 61.111832 666.527613 61.111832 L 652.713161 61.111832 Z M 703.86871 84.638476 C 703.86871 86.496765 704.675137 88.10962 706.25293 89.406917 C 707.865785 90.739275 709.794198 91.370392 712.108294 91.370392 C 713.651025 91.370392 715.123632 91.230144 716.491052 90.984709 C 717.858472 90.669151 719.366141 90.213344 720.978996 89.582227 C 722.626913 88.916048 724.485202 88.004434 726.48374 86.91751 C 728.517339 85.830586 730.971684 84.463166 733.846773 82.815249 C 735.144069 82.043883 736.441365 81.658201 737.773724 81.658201 C 738.860648 81.658201 739.772261 82.008821 740.473503 82.745125 C 741.174744 83.446366 741.560427 84.287855 741.560427 85.269593 C 741.560427 88.880986 738.580151 93.053371 732.654663 97.786749 C 723.047658 105.465341 713.019908 109.287106 702.606475 109.287106 C 698.399028 109.287106 694.612325 108.620927 691.211305 107.32363 C 687.810285 106.026334 684.865072 104.132983 682.340604 101.748762 C 679.816135 99.32948 677.887722 96.489453 676.485239 93.193619 C 675.117819 89.897785 674.45164 86.286393 674.45164 82.359442 C 674.45164 77.170257 675.608688 72.226506 677.957846 67.52819 C 680.342066 62.794811 683.497652 58.69255 687.494727 55.11622 C 691.491802 51.539889 696.155056 48.699862 701.414365 46.561077 C 706.708737 44.422291 712.248543 43.335367 718.033783 43.335367 C 724.27483 43.335367 729.393891 44.948222 733.390966 48.138869 C 737.423103 51.294455 739.421641 55.396716 739.421641 60.445653 C 739.421641 64.407666 737.949034 68.019059 735.038883 71.385017 C 732.163794 74.715912 727.886222 77.55594 722.311354 79.870036 C 719.6817 81.062146 716.666362 82.008821 713.265342 82.675001 C 709.864322 83.306118 706.743799 83.621676 703.86871 83.621676 Z M 705.516627 68.860548 C 714.317204 67.52819 718.699962 65.073845 718.699962 61.427391 C 718.699962 60.305405 718.349341 59.428853 717.683162 58.727612 C 717.052045 57.991309 716.245618 57.640688 715.228818 57.640688 C 713.160156 57.640688 711.231743 58.69255 709.443578 60.761212 C 707.725537 62.864935 706.393178 65.564714 705.516627 68.860548 Z M 705.516627 68.860548 " stroke="#472016" stroke-width="42.561787" stroke-opacity="1" stroke-miterlimit="4"/></g><g fill="#ffffff" fill-opacity="1"><g transform="translate(2.608708, 22.124101)"><g><path d="M 12.15625 -12 C 12.8125 -12.882812 13.476562 -13.535156 14.15625 -13.953125 C 14.84375 -14.367188 15.585938 -14.578125 16.390625 -14.578125 C 16.816406 -14.578125 17.160156 -14.476562 17.421875 -14.28125 C 17.679688 -14.082031 17.8125 -13.828125 17.8125 -13.515625 C 17.8125 -13.335938 17.769531 -13.171875 17.6875 -13.015625 C 17.601562 -12.867188 17.492188 -12.734375 17.359375 -12.609375 C 17.222656 -12.492188 17.0625 -12.398438 16.875 -12.328125 C 16.695312 -12.253906 16.515625 -12.21875 16.328125 -12.21875 C 16.191406 -12.21875 16.101562 -12.238281 16.0625 -12.28125 C 16.03125 -12.332031 15.984375 -12.460938 15.921875 -12.671875 C 15.910156 -12.710938 15.863281 -12.753906 15.78125 -12.796875 C 15.695312 -12.835938 15.613281 -12.859375 15.53125 -12.859375 C 14.925781 -12.859375 14.382812 -12.53125 13.90625 -11.875 C 14.46875 -11.789062 14.976562 -11.628906 15.4375 -11.390625 C 15.90625 -11.160156 16.304688 -10.867188 16.640625 -10.515625 C 16.972656 -10.171875 17.226562 -9.769531 17.40625 -9.3125 C 17.59375 -8.851562 17.6875 -8.363281 17.6875 -7.84375 C 17.6875 -7.25 17.585938 -6.679688 17.390625 -6.140625 C 17.191406 -5.597656 16.925781 -5.125 16.59375 -4.71875 C 16.257812 -4.320312 15.867188 -4.003906 15.421875 -3.765625 C 14.984375 -3.523438 14.523438 -3.40625 14.046875 -3.40625 C 13.390625 -3.40625 12.851562 -3.585938 12.4375 -3.953125 C 12.03125 -4.328125 11.828125 -4.796875 11.828125 -5.359375 C 11.828125 -5.578125 11.851562 -5.789062 11.90625 -6 C 11.957031 -6.21875 12.023438 -6.410156 12.109375 -6.578125 C 12.203125 -6.753906 12.304688 -6.890625 12.421875 -6.984375 C 12.535156 -7.085938 12.644531 -7.140625 12.75 -7.140625 C 12.84375 -7.140625 12.898438 -7.117188 12.921875 -7.078125 C 12.953125 -7.046875 13 -6.957031 13.0625 -6.8125 C 13.15625 -6.59375 13.3125 -6.484375 13.53125 -6.484375 C 13.675781 -6.484375 13.816406 -6.53125 13.953125 -6.625 C 14.097656 -6.726562 14.222656 -6.863281 14.328125 -7.03125 C 14.441406 -7.195312 14.53125 -7.378906 14.59375 -7.578125 C 14.664062 -7.773438 14.703125 -7.988281 14.703125 -8.21875 C 14.703125 -8.726562 14.546875 -9.160156 14.234375 -9.515625 C 13.921875 -9.867188 13.488281 -10.097656 12.9375 -10.203125 C 12.726562 -9.703125 12.566406 -9.300781 12.453125 -9 C 12.335938 -8.695312 12.234375 -8.390625 12.140625 -8.078125 C 12.097656 -7.984375 12.070312 -7.914062 12.0625 -7.875 C 12.050781 -7.84375 12.039062 -7.8125 12.03125 -7.78125 C 12.019531 -7.757812 12.007812 -7.726562 12 -7.6875 C 11.988281 -7.65625 11.972656 -7.59375 11.953125 -7.5 C 11.878906 -7.226562 11.769531 -6.804688 11.625 -6.234375 C 11.488281 -5.671875 11.316406 -4.945312 11.109375 -4.0625 C 10.597656 -1.988281 9.769531 -0.410156 8.625 0.671875 C 7.488281 1.765625 6.085938 2.3125 4.421875 2.3125 C 3.804688 2.3125 3.242188 2.21875 2.734375 2.03125 C 2.222656 1.851562 1.78125 1.601562 1.40625 1.28125 C 1.03125 0.96875 0.738281 0.585938 0.53125 0.140625 C 0.320312 -0.304688 0.21875 -0.789062 0.21875 -1.3125 C 0.21875 -2.007812 0.40625 -2.671875 0.78125 -3.296875 C 1.164062 -3.929688 1.675781 -4.441406 2.3125 -4.828125 C 2.738281 -5.066406 3.195312 -5.257812 3.6875 -5.40625 C 4.1875 -5.550781 4.644531 -5.625 5.0625 -5.625 C 5.363281 -5.625 5.609375 -5.570312 5.796875 -5.46875 C 5.984375 -5.363281 6.078125 -5.226562 6.078125 -5.0625 C 6.078125 -4.988281 6.066406 -4.925781 6.046875 -4.875 C 6.023438 -4.820312 5.925781 -4.691406 5.75 -4.484375 C 5.675781 -4.378906 5.640625 -4.253906 5.640625 -4.109375 C 5.640625 -3.890625 5.738281 -3.695312 5.9375 -3.53125 C 6.132812 -3.363281 6.367188 -3.28125 6.640625 -3.28125 C 6.953125 -3.28125 7.28125 -3.367188 7.625 -3.546875 C 7.96875 -3.734375 8.257812 -3.988281 8.5 -4.3125 C 8.695312 -4.550781 8.875 -4.832031 9.03125 -5.15625 C 9.195312 -5.476562 9.390625 -5.941406 9.609375 -6.546875 C 9.742188 -6.898438 9.867188 -7.234375 9.984375 -7.546875 C 10.097656 -7.867188 10.222656 -8.171875 10.359375 -8.453125 L 11.015625 -9.84375 C 11.035156 -9.90625 11.0625 -9.960938 11.09375 -10.015625 C 11.125 -10.078125 11.15625 -10.140625 11.1875 -10.203125 C 10.832031 -10.140625 10.554688 -10.078125 10.359375 -10.015625 C 10.160156 -9.953125 9.960938 -9.859375 9.765625 -9.734375 C 9.554688 -9.597656 9.378906 -9.425781 9.234375 -9.21875 C 9.097656 -9.019531 9.03125 -8.84375 9.03125 -8.6875 C 9.03125 -8.550781 9.0625 -8.445312 9.125 -8.375 C 9.195312 -8.3125 9.359375 -8.234375 9.609375 -8.140625 C 9.703125 -8.097656 9.75 -8.019531 9.75 -7.90625 C 9.75 -7.65625 9.59375 -7.335938 9.28125 -6.953125 C 8.9375 -6.554688 8.554688 -6.25 8.140625 -6.03125 C 7.722656 -5.820312 7.300781 -5.71875 6.875 -5.71875 C 6.226562 -5.71875 5.691406 -5.90625 5.265625 -6.28125 C 4.847656 -6.65625 4.640625 -7.128906 4.640625 -7.703125 C 4.640625 -8.472656 4.941406 -9.175781 5.546875 -9.8125 C 6.160156 -10.457031 7.03125 -10.976562 8.15625 -11.375 C 9.34375 -11.789062 10.566406 -12 11.828125 -12 Z M 12.15625 -12 "/></g></g></g><g fill="#ffffff" fill-opacity="1"><g transform="translate(19.266246, 22.124101)"><g><path d="M 1.421875 -4.84375 C 1.453125 -4.925781 1.46875 -5.019531 1.46875 -5.125 C 1.476562 -5.226562 1.484375 -5.328125 1.484375 -5.421875 C 1.484375 -5.566406 1.453125 -5.679688 1.390625 -5.765625 C 1.335938 -5.847656 1.238281 -5.9375 1.09375 -6.03125 C 1.257812 -6.175781 1.445312 -6.3125 1.65625 -6.4375 C 1.863281 -6.570312 2.078125 -6.679688 2.296875 -6.765625 C 2.515625 -6.859375 2.726562 -6.929688 2.9375 -6.984375 C 3.15625 -7.046875 3.351562 -7.078125 3.53125 -7.078125 C 3.851562 -7.078125 4.109375 -7 4.296875 -6.84375 C 4.484375 -6.6875 4.578125 -6.476562 4.578125 -6.21875 C 4.578125 -6.15625 4.570312 -6.070312 4.5625 -5.96875 C 4.550781 -5.875 4.535156 -5.734375 4.515625 -5.546875 C 4.691406 -5.722656 4.832031 -5.859375 4.9375 -5.953125 C 5.039062 -6.054688 5.128906 -6.140625 5.203125 -6.203125 C 5.273438 -6.273438 5.335938 -6.328125 5.390625 -6.359375 C 5.453125 -6.398438 5.519531 -6.445312 5.59375 -6.5 C 5.800781 -6.664062 6.039062 -6.789062 6.3125 -6.875 C 6.582031 -6.96875 6.84375 -7.015625 7.09375 -7.015625 C 7.5 -7.015625 7.828125 -6.894531 8.078125 -6.65625 C 8.335938 -6.425781 8.46875 -6.113281 8.46875 -5.71875 C 8.46875 -5.4375 8.414062 -5.164062 8.3125 -4.90625 C 8.207031 -4.65625 8.066406 -4.429688 7.890625 -4.234375 C 7.710938 -4.035156 7.507812 -3.878906 7.28125 -3.765625 C 7.0625 -3.648438 6.828125 -3.59375 6.578125 -3.59375 C 6.285156 -3.59375 6.03125 -3.675781 5.8125 -3.84375 C 5.59375 -4.019531 5.484375 -4.222656 5.484375 -4.453125 C 5.484375 -4.492188 5.484375 -4.535156 5.484375 -4.578125 C 5.492188 -4.628906 5.503906 -4.6875 5.515625 -4.75 C 5.273438 -4.613281 5.066406 -4.460938 4.890625 -4.296875 C 4.722656 -4.140625 4.570312 -3.960938 4.4375 -3.765625 C 4.300781 -3.566406 4.179688 -3.328125 4.078125 -3.046875 C 3.972656 -2.773438 3.875 -2.453125 3.78125 -2.078125 L 3.609375 -1.3125 C 3.398438 -0.4375 2.929688 0 2.203125 0 L 1.484375 0 C 1.273438 0 1.078125 0.03125 0.890625 0.09375 C 0.703125 0.164062 0.503906 0.285156 0.296875 0.453125 Z M 1.421875 -4.84375 "/></g></g></g><g fill="#ffffff" fill-opacity="1"><g transform="translate(26.981124, 22.124101)"><g><path d="M 8.0625 -2.9375 C 7.988281 -2.613281 7.953125 -2.398438 7.953125 -2.296875 C 7.953125 -2.160156 8.003906 -2.039062 8.109375 -1.9375 C 8.210938 -1.84375 8.34375 -1.796875 8.5 -1.796875 C 8.632812 -1.796875 8.757812 -1.820312 8.875 -1.875 C 9.125 -1.945312 9.265625 -1.984375 9.296875 -1.984375 C 9.378906 -1.984375 9.453125 -1.953125 9.515625 -1.890625 C 9.578125 -1.828125 9.609375 -1.75 9.609375 -1.65625 C 9.609375 -1.457031 9.503906 -1.25 9.296875 -1.03125 C 9.097656 -0.820312 8.84375 -0.625 8.53125 -0.4375 C 8.226562 -0.257812 7.894531 -0.109375 7.53125 0.015625 C 7.175781 0.140625 6.84375 0.203125 6.53125 0.203125 C 6.101562 0.203125 5.75 0.0625 5.46875 -0.21875 C 5.1875 -0.5 5.046875 -0.851562 5.046875 -1.28125 C 5.046875 -1.34375 5.046875 -1.40625 5.046875 -1.46875 C 5.046875 -1.539062 5.050781 -1.617188 5.0625 -1.703125 C 4.90625 -1.503906 4.773438 -1.34375 4.671875 -1.21875 C 4.578125 -1.101562 4.492188 -1 4.421875 -0.90625 C 4.347656 -0.820312 4.273438 -0.75 4.203125 -0.6875 C 4.140625 -0.632812 4.070312 -0.570312 4 -0.5 C 3.757812 -0.257812 3.492188 -0.078125 3.203125 0.046875 C 2.910156 0.171875 2.632812 0.234375 2.375 0.234375 C 1.832031 0.234375 1.382812 0.0078125 1.03125 -0.4375 C 0.6875 -0.894531 0.515625 -1.476562 0.515625 -2.1875 C 0.515625 -2.789062 0.628906 -3.382812 0.859375 -3.96875 C 1.085938 -4.5625 1.390625 -5.085938 1.765625 -5.546875 C 2.140625 -6.003906 2.566406 -6.367188 3.046875 -6.640625 C 3.535156 -6.921875 4.035156 -7.0625 4.546875 -7.0625 C 5.265625 -7.0625 5.859375 -6.796875 6.328125 -6.265625 C 6.546875 -6.421875 6.734375 -6.546875 6.890625 -6.640625 C 7.046875 -6.742188 7.1875 -6.820312 7.3125 -6.875 C 7.4375 -6.9375 7.550781 -6.972656 7.65625 -6.984375 C 7.757812 -7.003906 7.867188 -7.015625 7.984375 -7.015625 C 8.234375 -7.015625 8.429688 -6.953125 8.578125 -6.828125 C 8.734375 -6.703125 8.804688 -6.539062 8.796875 -6.34375 C 8.796875 -6.21875 8.78125 -6.09375 8.75 -5.96875 Z M 5 -5.15625 C 4.726562 -5.15625 4.492188 -5.035156 4.296875 -4.796875 C 4.097656 -4.554688 4 -4.285156 4 -3.984375 C 4 -3.515625 4.195312 -3.28125 4.59375 -3.28125 C 4.71875 -3.28125 4.835938 -3.316406 4.953125 -3.390625 C 5.066406 -3.460938 5.171875 -3.5625 5.265625 -3.6875 C 5.359375 -3.8125 5.429688 -3.945312 5.484375 -4.09375 C 5.546875 -4.25 5.578125 -4.410156 5.578125 -4.578125 C 5.578125 -4.960938 5.382812 -5.15625 5 -5.15625 Z M 5 -5.15625 "/></g></g></g><g fill="#ffffff" fill-opacity="1"><g transform="translate(36.418561, 22.124101)"><g><path d="M 8.515625 -6.609375 C 8.691406 -7.066406 8.847656 -7.472656 8.984375 -7.828125 C 9.128906 -8.179688 9.257812 -8.5 9.375 -8.78125 C 9.5 -9.0625 9.617188 -9.320312 9.734375 -9.5625 C 9.859375 -9.800781 9.976562 -10.035156 10.09375 -10.265625 C 10.613281 -11.171875 11.207031 -11.875 11.875 -12.375 C 12.550781 -12.875 13.25 -13.125 13.96875 -13.125 C 14.625 -13.125 15.15625 -12.914062 15.5625 -12.5 C 15.976562 -12.09375 16.1875 -11.5625 16.1875 -10.90625 C 16.1875 -10.226562 16.023438 -9.5625 15.703125 -8.90625 C 15.378906 -8.25 14.9375 -7.640625 14.375 -7.078125 C 13.820312 -6.515625 13.171875 -6.023438 12.421875 -5.609375 C 11.679688 -5.191406 10.882812 -4.890625 10.03125 -4.703125 C 9.851562 -4.253906 9.664062 -3.832031 9.46875 -3.4375 C 9.28125 -3.039062 9.117188 -2.765625 8.984375 -2.609375 C 9.335938 -2.441406 9.6875 -2.3125 10.03125 -2.21875 C 10.382812 -2.132812 10.6875 -2.09375 10.9375 -2.09375 C 11.257812 -2.09375 11.535156 -2.1875 11.765625 -2.375 C 11.992188 -2.5625 12.109375 -2.789062 12.109375 -3.0625 C 12.109375 -3.257812 12.066406 -3.394531 11.984375 -3.46875 C 11.910156 -3.550781 11.753906 -3.625 11.515625 -3.6875 C 11.335938 -3.75 11.25 -3.863281 11.25 -4.03125 C 11.25 -4.164062 11.316406 -4.296875 11.453125 -4.421875 C 11.585938 -4.554688 11.765625 -4.671875 11.984375 -4.765625 C 12.210938 -4.859375 12.472656 -4.9375 12.765625 -5 C 13.054688 -5.0625 13.359375 -5.09375 13.671875 -5.09375 C 14.023438 -5.09375 14.351562 -5.03125 14.65625 -4.90625 C 14.957031 -4.789062 15.21875 -4.617188 15.4375 -4.390625 C 15.65625 -4.171875 15.828125 -3.910156 15.953125 -3.609375 C 16.078125 -3.316406 16.140625 -3 16.140625 -2.65625 C 16.140625 -2.195312 16.039062 -1.765625 15.84375 -1.359375 C 15.644531 -0.953125 15.367188 -0.601562 15.015625 -0.3125 C 14.671875 -0.0195312 14.257812 0.207031 13.78125 0.375 C 13.300781 0.539062 12.789062 0.625 12.25 0.625 C 11.945312 0.625 11.6875 0.609375 11.46875 0.578125 C 11.257812 0.554688 11.007812 0.488281 10.71875 0.375 C 10.425781 0.269531 10.050781 0.109375 9.59375 -0.109375 C 9.132812 -0.328125 8.515625 -0.640625 7.734375 -1.046875 C 7.160156 -0.535156 6.535156 -0.144531 5.859375 0.125 C 5.179688 0.394531 4.488281 0.53125 3.78125 0.53125 C 3.320312 0.53125 2.90625 0.46875 2.53125 0.34375 C 2.164062 0.226562 1.847656 0.0664062 1.578125 -0.140625 C 1.304688 -0.359375 1.097656 -0.617188 0.953125 -0.921875 C 0.804688 -1.222656 0.734375 -1.550781 0.734375 -1.90625 C 0.734375 -2.238281 0.800781 -2.546875 0.9375 -2.828125 C 1.070312 -3.109375 1.253906 -3.351562 1.484375 -3.5625 C 1.722656 -3.769531 2.003906 -3.929688 2.328125 -4.046875 C 2.660156 -4.160156 3.019531 -4.21875 3.40625 -4.21875 C 3.914062 -4.21875 4.476562 -4.132812 5.09375 -3.96875 C 5.707031 -3.8125 6.398438 -3.578125 7.171875 -3.265625 C 7.316406 -3.492188 7.445312 -3.738281 7.5625 -4 C 7.675781 -4.269531 7.757812 -4.503906 7.8125 -4.703125 C 7.289062 -4.765625 6.847656 -4.859375 6.484375 -4.984375 C 6.128906 -5.109375 5.769531 -5.273438 5.40625 -5.484375 C 4.75 -5.867188 4.226562 -6.367188 3.84375 -6.984375 C 3.46875 -7.609375 3.28125 -8.269531 3.28125 -8.96875 C 3.28125 -9.4375 3.363281 -9.878906 3.53125 -10.296875 C 3.707031 -10.722656 3.941406 -11.09375 4.234375 -11.40625 C 4.523438 -11.726562 4.863281 -11.976562 5.25 -12.15625 C 5.632812 -12.34375 6.039062 -12.4375 6.46875 -12.4375 C 7.3125 -12.4375 8.019531 -12.097656 8.59375 -11.421875 C 8.800781 -11.171875 8.960938 -10.894531 9.078125 -10.59375 C 9.191406 -10.289062 9.25 -10.007812 9.25 -9.75 C 9.25 -9.363281 9.101562 -9.171875 8.8125 -9.171875 C 8.769531 -9.171875 8.734375 -9.171875 8.703125 -9.171875 C 8.671875 -9.179688 8.632812 -9.195312 8.59375 -9.21875 C 8.5625 -9.238281 8.507812 -9.273438 8.4375 -9.328125 C 8.375 -9.390625 8.285156 -9.472656 8.171875 -9.578125 C 8.035156 -9.691406 7.847656 -9.75 7.609375 -9.75 C 7.316406 -9.75 7.078125 -9.644531 6.890625 -9.4375 C 6.703125 -9.226562 6.609375 -8.953125 6.609375 -8.609375 C 6.609375 -8.359375 6.664062 -8.109375 6.78125 -7.859375 C 6.90625 -7.609375 7.066406 -7.398438 7.265625 -7.234375 C 7.421875 -7.097656 7.582031 -6.988281 7.75 -6.90625 C 7.925781 -6.820312 8.179688 -6.722656 8.515625 -6.609375 Z M 10.6875 -6.421875 C 11.019531 -6.503906 11.335938 -6.628906 11.640625 -6.796875 C 11.941406 -6.972656 12.210938 -7.164062 12.453125 -7.375 C 12.703125 -7.59375 12.898438 -7.816406 13.046875 -8.046875 C 13.191406 -8.273438 13.265625 -8.492188 13.265625 -8.703125 C 13.265625 -8.878906 13.210938 -9.019531 13.109375 -9.125 C 13.003906 -9.238281 12.875 -9.296875 12.71875 -9.296875 C 12.375 -9.296875 12.0625 -9.097656 11.78125 -8.703125 C 11.707031 -8.609375 11.648438 -8.523438 11.609375 -8.453125 C 11.566406 -8.390625 11.515625 -8.296875 11.453125 -8.171875 C 11.390625 -8.046875 11.3125 -7.875 11.21875 -7.65625 C 11.132812 -7.445312 11.003906 -7.148438 10.828125 -6.765625 C 10.804688 -6.710938 10.78125 -6.65625 10.75 -6.59375 C 10.726562 -6.53125 10.707031 -6.472656 10.6875 -6.421875 Z M 5.96875 -1.84375 C 5.820312 -1.90625 5.65625 -1.96875 5.46875 -2.03125 C 5.289062 -2.09375 5.113281 -2.144531 4.9375 -2.1875 C 4.757812 -2.238281 4.59375 -2.28125 4.4375 -2.3125 C 4.289062 -2.34375 4.175781 -2.359375 4.09375 -2.359375 C 3.914062 -2.359375 3.757812 -2.300781 3.625 -2.1875 C 3.488281 -2.082031 3.421875 -1.957031 3.421875 -1.8125 C 3.421875 -1.632812 3.503906 -1.484375 3.671875 -1.359375 C 3.847656 -1.234375 4.0625 -1.171875 4.3125 -1.171875 C 4.570312 -1.171875 4.832031 -1.222656 5.09375 -1.328125 C 5.351562 -1.429688 5.644531 -1.601562 5.96875 -1.84375 Z M 5.96875 -1.84375 "/></g></g></g><g fill="#ffffff" fill-opacity="1"><g transform="translate(52.746247, 22.124101)"><g><path d="M 1.296875 -4.796875 C 1.359375 -5.078125 1.390625 -5.273438 1.390625 -5.390625 C 1.390625 -5.640625 1.25 -5.847656 0.96875 -6.015625 C 1.820312 -6.722656 2.632812 -7.078125 3.40625 -7.078125 C 3.726562 -7.078125 3.984375 -6.992188 4.171875 -6.828125 C 4.359375 -6.671875 4.453125 -6.453125 4.453125 -6.171875 C 4.453125 -6.078125 4.453125 -6.007812 4.453125 -5.96875 C 4.453125 -5.9375 4.441406 -5.890625 4.421875 -5.828125 L 3.796875 -2.921875 C 3.765625 -2.816406 3.742188 -2.722656 3.734375 -2.640625 C 3.722656 -2.554688 3.71875 -2.484375 3.71875 -2.421875 C 3.71875 -2.234375 3.765625 -2.082031 3.859375 -1.96875 C 3.960938 -1.863281 4.097656 -1.8125 4.265625 -1.8125 C 4.335938 -1.8125 4.40625 -1.820312 4.46875 -1.84375 C 4.53125 -1.863281 4.703125 -1.921875 4.984375 -2.015625 L 5.0625 -2.015625 C 5.238281 -2.015625 5.328125 -1.910156 5.328125 -1.703125 C 5.328125 -1.492188 5.226562 -1.28125 5.03125 -1.0625 C 4.84375 -0.84375 4.597656 -0.640625 4.296875 -0.453125 C 3.992188 -0.273438 3.664062 -0.125 3.3125 0 C 2.957031 0.125 2.625 0.1875 2.3125 0.1875 C 1.820312 0.1875 1.414062 0.0507812 1.09375 -0.21875 C 0.769531 -0.5 0.609375 -0.851562 0.609375 -1.28125 C 0.609375 -1.46875 0.625 -1.644531 0.65625 -1.8125 Z M 3.71875 -10.53125 C 4.144531 -10.53125 4.484375 -10.414062 4.734375 -10.1875 C 4.992188 -9.96875 5.125 -9.675781 5.125 -9.3125 C 5.125 -9.09375 5.066406 -8.882812 4.953125 -8.6875 C 4.847656 -8.488281 4.695312 -8.316406 4.5 -8.171875 C 4.3125 -8.023438 4.09375 -7.90625 3.84375 -7.8125 C 3.59375 -7.71875 3.332031 -7.671875 3.0625 -7.671875 C 2.664062 -7.671875 2.351562 -7.78125 2.125 -8 C 1.894531 -8.226562 1.78125 -8.523438 1.78125 -8.890625 C 1.78125 -9.109375 1.832031 -9.316406 1.9375 -9.515625 C 2.039062 -9.710938 2.179688 -9.882812 2.359375 -10.03125 C 2.546875 -10.1875 2.753906 -10.304688 2.984375 -10.390625 C 3.210938 -10.484375 3.457031 -10.53125 3.71875 -10.53125 Z M 3.71875 -10.53125 "/></g></g></g><g fill="#ffffff" fill-opacity="1"><g transform="translate(57.932257, 22.124101)"><g><path d="M 3.25 0.34375 C 3.15625 0.738281 3.023438 1.019531 2.859375 1.1875 C 2.742188 1.300781 2.59375 1.394531 2.40625 1.46875 C 2.226562 1.539062 2.066406 1.578125 1.921875 1.578125 L 1.09375 1.578125 C 0.875 1.578125 0.6875 1.613281 0.53125 1.6875 C 0.375 1.757812 0.175781 1.898438 -0.0625 2.109375 L 1.5 -5.109375 L 1.09375 -5.109375 C 0.78125 -5.109375 0.625 -5.285156 0.625 -5.640625 C 0.625 -5.691406 0.628906 -5.722656 0.640625 -5.734375 L 0.734375 -6.21875 C 0.785156 -6.40625 0.851562 -6.546875 0.9375 -6.640625 C 1.019531 -6.734375 1.144531 -6.804688 1.3125 -6.859375 C 1.4375 -6.890625 1.539062 -6.921875 1.625 -6.953125 C 1.71875 -6.992188 1.789062 -7.054688 1.84375 -7.140625 C 1.90625 -7.222656 1.960938 -7.328125 2.015625 -7.453125 C 2.066406 -7.585938 2.128906 -7.765625 2.203125 -7.984375 C 2.359375 -8.503906 2.59375 -8.972656 2.90625 -9.390625 C 3.21875 -9.816406 3.578125 -10.179688 3.984375 -10.484375 C 4.390625 -10.785156 4.832031 -11.019531 5.3125 -11.1875 C 5.789062 -11.363281 6.285156 -11.453125 6.796875 -11.453125 C 7.484375 -11.453125 8.023438 -11.296875 8.421875 -10.984375 C 8.816406 -10.671875 9.015625 -10.253906 9.015625 -9.734375 C 9.015625 -9.515625 8.972656 -9.304688 8.890625 -9.109375 C 8.816406 -8.921875 8.707031 -8.753906 8.5625 -8.609375 C 8.425781 -8.472656 8.265625 -8.363281 8.078125 -8.28125 C 7.898438 -8.207031 7.707031 -8.171875 7.5 -8.171875 C 7.15625 -8.171875 6.863281 -8.273438 6.625 -8.484375 C 6.394531 -8.703125 6.28125 -8.972656 6.28125 -9.296875 C 6.28125 -9.410156 6.296875 -9.515625 6.328125 -9.609375 C 6.359375 -9.703125 6.414062 -9.828125 6.5 -9.984375 C 6.289062 -9.953125 6.113281 -9.898438 5.96875 -9.828125 C 5.832031 -9.765625 5.710938 -9.664062 5.609375 -9.53125 C 5.515625 -9.40625 5.429688 -9.242188 5.359375 -9.046875 C 5.296875 -8.859375 5.226562 -8.609375 5.15625 -8.296875 L 4.84375 -6.890625 L 6.265625 -6.890625 C 6.660156 -6.890625 6.859375 -6.738281 6.859375 -6.4375 C 6.859375 -6.382812 6.84375 -6.3125 6.8125 -6.21875 L 6.71875 -5.734375 C 6.625 -5.316406 6.382812 -5.109375 6 -5.109375 L 4.453125 -5.109375 Z M 3.25 0.34375 "/></g></g></g><g fill="#ffffff" fill-opacity="1"><g transform="translate(64.382702, 22.124101)"><g><path d="M 3.703125 -2.5 C 3.703125 -2.289062 3.789062 -2.109375 3.96875 -1.953125 C 4.144531 -1.804688 4.363281 -1.734375 4.625 -1.734375 C 4.789062 -1.734375 4.945312 -1.75 5.09375 -1.78125 C 5.25 -1.8125 5.421875 -1.863281 5.609375 -1.9375 C 5.796875 -2.007812 6 -2.109375 6.21875 -2.234375 C 6.445312 -2.359375 6.71875 -2.507812 7.03125 -2.6875 C 7.1875 -2.78125 7.335938 -2.828125 7.484375 -2.828125 C 7.597656 -2.828125 7.695312 -2.785156 7.78125 -2.703125 C 7.863281 -2.617188 7.90625 -2.523438 7.90625 -2.421875 C 7.90625 -2.015625 7.570312 -1.550781 6.90625 -1.03125 C 5.832031 -0.175781 4.71875 0.25 3.5625 0.25 C 3.09375 0.25 2.664062 0.175781 2.28125 0.03125 C 1.90625 -0.113281 1.578125 -0.316406 1.296875 -0.578125 C 1.015625 -0.847656 0.796875 -1.164062 0.640625 -1.53125 C 0.492188 -1.90625 0.421875 -2.3125 0.421875 -2.75 C 0.421875 -3.320312 0.550781 -3.867188 0.8125 -4.390625 C 1.070312 -4.921875 1.425781 -5.382812 1.875 -5.78125 C 2.320312 -6.175781 2.835938 -6.492188 3.421875 -6.734375 C 4.015625 -6.972656 4.632812 -7.09375 5.28125 -7.09375 C 5.976562 -7.09375 6.546875 -6.914062 6.984375 -6.5625 C 7.429688 -6.207031 7.65625 -5.75 7.65625 -5.1875 C 7.65625 -4.75 7.492188 -4.34375 7.171875 -3.96875 C 6.847656 -3.59375 6.375 -3.28125 5.75 -3.03125 C 5.457031 -2.894531 5.117188 -2.789062 4.734375 -2.71875 C 4.359375 -2.644531 4.015625 -2.609375 3.703125 -2.609375 Z M 3.890625 -4.25 C 4.867188 -4.394531 5.359375 -4.671875 5.359375 -5.078125 C 5.359375 -5.203125 5.316406 -5.300781 5.234375 -5.375 C 5.160156 -5.457031 5.070312 -5.5 4.96875 -5.5 C 4.738281 -5.5 4.523438 -5.378906 4.328125 -5.140625 C 4.128906 -4.910156 3.984375 -4.613281 3.890625 -4.25 Z M 3.890625 -4.25 "/></g></g></g></svg>